<?xml version="1.0" encoding="utf-8"?>
<svg xmlns="http://www.w3.org/2000/svg" xmlns:xlink="http://www.w3.org/1999/xlink" width="600" height="400" viewBox="0 0 2400 1600">
<defs>
  <clipPath id="clip0200">
    <rect x="0" y="0" width="2000" height="2000"/>
  </clipPath>
</defs>
<defs>
  <clipPath id="clip0201">
    <rect x="0" y="0" width="2400" height="1600"/>
  </clipPath>
</defs>
<polygon clip-path="url(#clip0201)" points="
0,1600 2400,1600 2400,0 0,0 
  " fill="#ffffff" fill-rule="evenodd" fill-opacity="1"/>
<defs>
  <clipPath id="clip0202">
    <rect x="480" y="0" width="1681" height="1600"/>
  </clipPath>
</defs>
<polygon clip-path="url(#clip0201)" points="
148.013,1503.47 2321.26,1503.47 2321.26,125.984 148.013,125.984 
  " fill="#ffffff" fill-rule="evenodd" fill-opacity="1"/>
<defs>
  <clipPath id="clip0203">
    <rect x="148" y="125" width="2174" height="1378"/>
  </clipPath>
</defs>
<polyline clip-path="url(#clip0203)" style="stroke:#000000; stroke-width:2; stroke-opacity:0.1; fill:none" points="
  518.721,1503.47 518.721,125.984 
  "/>
<polyline clip-path="url(#clip0203)" style="stroke:#000000; stroke-width:2; stroke-opacity:0.1; fill:none" points="
  985.526,1503.47 985.526,125.984 
  "/>
<polyline clip-path="url(#clip0203)" style="stroke:#000000; stroke-width:2; stroke-opacity:0.1; fill:none" points="
  1452.33,1503.47 1452.33,125.984 
  "/>
<polyline clip-path="url(#clip0203)" style="stroke:#000000; stroke-width:2; stroke-opacity:0.1; fill:none" points="
  1919.14,1503.47 1919.14,125.984 
  "/>
<polyline clip-path="url(#clip0203)" style="stroke:#000000; stroke-width:2; stroke-opacity:0.1; fill:none" points="
  148.013,1464.49 2321.26,1464.49 
  "/>
<polyline clip-path="url(#clip0203)" style="stroke:#000000; stroke-width:2; stroke-opacity:0.1; fill:none" points="
  148.013,1102.5 2321.26,1102.5 
  "/>
<polyline clip-path="url(#clip0203)" style="stroke:#000000; stroke-width:2; stroke-opacity:0.1; fill:none" points="
  148.013,740.506 2321.26,740.506 
  "/>
<polyline clip-path="url(#clip0203)" style="stroke:#000000; stroke-width:2; stroke-opacity:0.1; fill:none" points="
  148.013,378.514 2321.26,378.514 
  "/>
<polyline clip-path="url(#clip0201)" style="stroke:#000000; stroke-width:4; stroke-opacity:1; fill:none" points="
  148.013,1503.47 2321.26,1503.47 
  "/>
<polyline clip-path="url(#clip0201)" style="stroke:#000000; stroke-width:4; stroke-opacity:1; fill:none" points="
  148.013,1503.47 148.013,125.984 
  "/>
<polyline clip-path="url(#clip0201)" style="stroke:#000000; stroke-width:4; stroke-opacity:1; fill:none" points="
  518.721,1503.47 518.721,1482.81 
  "/>
<polyline clip-path="url(#clip0201)" style="stroke:#000000; stroke-width:4; stroke-opacity:1; fill:none" points="
  985.526,1503.47 985.526,1482.81 
  "/>
<polyline clip-path="url(#clip0201)" style="stroke:#000000; stroke-width:4; stroke-opacity:1; fill:none" points="
  1452.33,1503.47 1452.33,1482.81 
  "/>
<polyline clip-path="url(#clip0201)" style="stroke:#000000; stroke-width:4; stroke-opacity:1; fill:none" points="
  1919.14,1503.47 1919.14,1482.81 
  "/>
<polyline clip-path="url(#clip0201)" style="stroke:#000000; stroke-width:4; stroke-opacity:1; fill:none" points="
  148.013,1464.49 180.612,1464.49 
  "/>
<polyline clip-path="url(#clip0201)" style="stroke:#000000; stroke-width:4; stroke-opacity:1; fill:none" points="
  148.013,1102.5 180.612,1102.5 
  "/>
<polyline clip-path="url(#clip0201)" style="stroke:#000000; stroke-width:4; stroke-opacity:1; fill:none" points="
  148.013,740.506 180.612,740.506 
  "/>
<polyline clip-path="url(#clip0201)" style="stroke:#000000; stroke-width:4; stroke-opacity:1; fill:none" points="
  148.013,378.514 180.612,378.514 
  "/>
<g clip-path="url(#clip0201)">
<text style="fill:#000000; fill-opacity:1; font-family:Arial,Helvetica Neue,Helvetica,sans-serif; font-size:48px; text-anchor:middle;" transform="rotate(0, 518.721, 1557.47)" x="518.721" y="1557.47">-0.4</text>
</g>
<g clip-path="url(#clip0201)">
<text style="fill:#000000; fill-opacity:1; font-family:Arial,Helvetica Neue,Helvetica,sans-serif; font-size:48px; text-anchor:middle;" transform="rotate(0, 985.526, 1557.47)" x="985.526" y="1557.47">-0.2</text>
</g>
<g clip-path="url(#clip0201)">
<text style="fill:#000000; fill-opacity:1; font-family:Arial,Helvetica Neue,Helvetica,sans-serif; font-size:48px; text-anchor:middle;" transform="rotate(0, 1452.33, 1557.47)" x="1452.33" y="1557.47">0.0</text>
</g>
<g clip-path="url(#clip0201)">
<text style="fill:#000000; fill-opacity:1; font-family:Arial,Helvetica Neue,Helvetica,sans-serif; font-size:48px; text-anchor:middle;" transform="rotate(0, 1919.14, 1557.47)" x="1919.14" y="1557.47">0.2</text>
</g>
<g clip-path="url(#clip0201)">
<text style="fill:#000000; fill-opacity:1; font-family:Arial,Helvetica Neue,Helvetica,sans-serif; font-size:48px; text-anchor:end;" transform="rotate(0, 124.013, 1481.99)" x="124.013" y="1481.99">0</text>
</g>
<g clip-path="url(#clip0201)">
<text style="fill:#000000; fill-opacity:1; font-family:Arial,Helvetica Neue,Helvetica,sans-serif; font-size:48px; text-anchor:end;" transform="rotate(0, 124.013, 1120)" x="124.013" y="1120">5</text>
</g>
<g clip-path="url(#clip0201)">
<text style="fill:#000000; fill-opacity:1; font-family:Arial,Helvetica Neue,Helvetica,sans-serif; font-size:48px; text-anchor:end;" transform="rotate(0, 124.013, 758.006)" x="124.013" y="758.006">10</text>
</g>
<g clip-path="url(#clip0201)">
<text style="fill:#000000; fill-opacity:1; font-family:Arial,Helvetica Neue,Helvetica,sans-serif; font-size:48px; text-anchor:end;" transform="rotate(0, 124.013, 396.014)" x="124.013" y="396.014">15</text>
</g>
<g clip-path="url(#clip0201)">
<text style="fill:#000000; fill-opacity:1; font-family:Arial,Helvetica Neue,Helvetica,sans-serif; font-size:84px; text-anchor:middle;" transform="rotate(0, 1234.64, 73.2)" x="1234.64" y="73.2">Fat Tails</text>
</g>
<polyline clip-path="url(#clip0203)" style="stroke:#009af9; stroke-width:4; stroke-opacity:1; fill:none" points="
  209.52,1464.49 210.521,1464.49 211.523,1464.49 212.525,1464.49 213.526,1464.49 214.528,1464.49 215.529,1464.48 216.531,1464.48 217.532,1464.48 218.534,1464.47 
  219.536,1464.47 220.537,1464.46 221.539,1464.45 222.54,1464.43 223.542,1464.41 224.544,1464.39 225.545,1464.35 226.547,1464.32 227.548,1464.27 228.55,1464.22 
  229.551,1464.17 230.553,1464.1 231.555,1464.03 232.556,1463.96 233.558,1463.89 234.559,1463.81 235.561,1463.74 236.563,1463.67 237.564,1463.61 238.566,1463.56 
  239.567,1463.52 240.569,1463.49 241.57,1463.48 242.572,1463.49 243.574,1463.51 244.575,1463.55 245.577,1463.59 246.578,1463.65 247.58,1463.72 248.581,1463.79 
  249.583,1463.87 250.585,1463.94 251.586,1464.02 252.588,1464.09 253.589,1464.15 254.591,1464.21 255.593,1464.26 256.594,1464.31 257.596,1464.35 258.597,1464.38 
  259.599,1464.4 260.6,1464.43 261.602,1464.44 262.604,1464.45 263.605,1464.46 264.607,1464.47 265.608,1464.48 266.61,1464.48 267.611,1464.48 268.613,1464.49 
  269.615,1464.49 270.616,1464.49 271.618,1464.49 272.619,1464.49 273.621,1464.49 274.623,1464.49 275.624,1464.49 276.626,1464.49 277.627,1464.49 278.629,1464.49 
  279.63,1464.49 280.632,1464.49 281.634,1464.49 282.635,1464.49 283.637,1464.49 284.638,1464.49 285.64,1464.49 286.641,1464.49 287.643,1464.49 288.645,1464.49 
  289.646,1464.49 290.648,1464.49 291.649,1464.49 292.651,1464.49 293.653,1464.49 294.654,1464.49 295.656,1464.49 296.657,1464.49 297.659,1464.49 298.66,1464.49 
  299.662,1464.49 300.664,1464.49 301.665,1464.49 302.667,1464.49 303.668,1464.49 304.67,1464.49 305.671,1464.49 306.673,1464.49 307.675,1464.49 308.676,1464.49 
  309.678,1464.49 310.679,1464.49 311.681,1464.49 312.683,1464.49 313.684,1464.49 314.686,1464.49 315.687,1464.49 316.689,1464.49 317.69,1464.49 318.692,1464.49 
  319.694,1464.49 320.695,1464.49 321.697,1464.49 322.698,1464.49 323.7,1464.49 324.701,1464.49 325.703,1464.49 326.705,1464.49 327.706,1464.49 328.708,1464.49 
  329.709,1464.49 330.711,1464.49 331.713,1464.49 332.714,1464.49 333.716,1464.49 334.717,1464.49 335.719,1464.49 336.72,1464.49 337.722,1464.49 338.724,1464.49 
  339.725,1464.49 340.727,1464.49 341.728,1464.49 342.73,1464.49 343.731,1464.49 344.733,1464.49 345.735,1464.49 346.736,1464.49 347.738,1464.49 348.739,1464.49 
  349.741,1464.49 350.743,1464.49 351.744,1464.49 352.746,1464.49 353.747,1464.49 354.749,1464.49 355.75,1464.49 356.752,1464.49 357.754,1464.49 358.755,1464.49 
  359.757,1464.49 360.758,1464.49 361.76,1464.49 362.762,1464.49 363.763,1464.49 364.765,1464.49 365.766,1464.49 366.768,1464.49 367.769,1464.49 368.771,1464.49 
  369.773,1464.49 370.774,1464.49 371.776,1464.49 372.777,1464.49 373.779,1464.49 374.78,1464.49 375.782,1464.49 376.784,1464.49 377.785,1464.49 378.787,1464.49 
  379.788,1464.49 380.79,1464.49 381.792,1464.49 382.793,1464.49 383.795,1464.49 384.796,1464.49 385.798,1464.49 386.799,1464.49 387.801,1464.49 388.803,1464.49 
  389.804,1464.49 390.806,1464.49 391.807,1464.49 392.809,1464.49 393.81,1464.49 394.812,1464.49 395.814,1464.49 396.815,1464.49 397.817,1464.49 398.818,1464.49 
  399.82,1464.49 400.822,1464.49 401.823,1464.49 402.825,1464.49 403.826,1464.49 404.828,1464.49 405.829,1464.49 406.831,1464.49 407.833,1464.49 408.834,1464.49 
  409.836,1464.49 410.837,1464.49 411.839,1464.49 412.84,1464.49 413.842,1464.49 414.844,1464.49 415.845,1464.49 416.847,1464.49 417.848,1464.49 418.85,1464.49 
  419.852,1464.49 420.853,1464.49 421.855,1464.49 422.856,1464.49 423.858,1464.49 424.859,1464.49 425.861,1464.49 426.863,1464.49 427.864,1464.49 428.866,1464.49 
  429.867,1464.49 430.869,1464.49 431.87,1464.49 432.872,1464.49 433.874,1464.49 434.875,1464.49 435.877,1464.49 436.878,1464.49 437.88,1464.49 438.882,1464.49 
  439.883,1464.49 440.885,1464.49 441.886,1464.49 442.888,1464.49 443.889,1464.49 444.891,1464.49 445.893,1464.49 446.894,1464.49 447.896,1464.49 448.897,1464.49 
  449.899,1464.49 450.9,1464.49 451.902,1464.49 452.904,1464.49 453.905,1464.49 454.907,1464.49 455.908,1464.49 456.91,1464.49 457.912,1464.49 458.913,1464.49 
  459.915,1464.49 460.916,1464.49 461.918,1464.49 462.919,1464.49 463.921,1464.49 464.923,1464.49 465.924,1464.49 466.926,1464.49 467.927,1464.49 468.929,1464.49 
  469.93,1464.49 470.932,1464.49 471.934,1464.49 472.935,1464.49 473.937,1464.49 474.938,1464.49 475.94,1464.49 476.942,1464.49 477.943,1464.49 478.945,1464.49 
  479.946,1464.49 480.948,1464.49 481.949,1464.49 482.951,1464.49 483.953,1464.49 484.954,1464.49 485.956,1464.49 486.957,1464.49 487.959,1464.49 488.961,1464.49 
  489.962,1464.49 490.964,1464.49 491.965,1464.49 492.967,1464.49 493.968,1464.49 494.97,1464.49 495.972,1464.49 496.973,1464.49 497.975,1464.49 498.976,1464.49 
  499.978,1464.49 500.979,1464.49 501.981,1464.49 502.983,1464.49 503.984,1464.49 504.986,1464.49 505.987,1464.49 506.989,1464.49 507.991,1464.49 508.992,1464.49 
  509.994,1464.49 510.995,1464.49 511.997,1464.49 512.998,1464.49 514,1464.49 515.002,1464.49 516.003,1464.49 517.005,1464.49 518.006,1464.49 519.008,1464.49 
  520.009,1464.49 521.011,1464.49 522.013,1464.49 523.014,1464.49 524.016,1464.49 525.017,1464.49 526.019,1464.49 527.021,1464.49 528.022,1464.49 529.024,1464.49 
  530.025,1464.49 531.027,1464.49 532.028,1464.49 533.03,1464.49 534.032,1464.49 535.033,1464.49 536.035,1464.49 537.036,1464.49 538.038,1464.49 539.039,1464.49 
  540.041,1464.49 541.043,1464.49 542.044,1464.49 543.046,1464.49 544.047,1464.49 545.049,1464.49 546.051,1464.49 547.052,1464.49 548.054,1464.49 549.055,1464.49 
  550.057,1464.49 551.058,1464.49 552.06,1464.49 553.062,1464.49 554.063,1464.49 555.065,1464.49 556.066,1464.49 557.068,1464.49 558.069,1464.49 559.071,1464.49 
  560.073,1464.49 561.074,1464.49 562.076,1464.49 563.077,1464.49 564.079,1464.49 565.081,1464.49 566.082,1464.49 567.084,1464.49 568.085,1464.49 569.087,1464.49 
  570.088,1464.49 571.09,1464.49 572.092,1464.49 573.093,1464.49 574.095,1464.49 575.096,1464.49 576.098,1464.49 577.099,1464.49 578.101,1464.49 579.103,1464.49 
  580.104,1464.49 581.106,1464.49 582.107,1464.49 583.109,1464.49 584.111,1464.49 585.112,1464.49 586.114,1464.49 587.115,1464.49 588.117,1464.49 589.118,1464.49 
  590.12,1464.49 591.122,1464.49 592.123,1464.49 593.125,1464.49 594.126,1464.49 595.128,1464.49 596.129,1464.49 597.131,1464.49 598.133,1464.49 599.134,1464.49 
  600.136,1464.49 601.137,1464.49 602.139,1464.49 603.141,1464.49 604.142,1464.49 605.144,1464.49 606.145,1464.49 607.147,1464.49 608.148,1464.49 609.15,1464.49 
  610.152,1464.49 611.153,1464.49 612.155,1464.49 613.156,1464.49 614.158,1464.49 615.16,1464.49 616.161,1464.49 617.163,1464.49 618.164,1464.49 619.166,1464.49 
  620.167,1464.49 621.169,1464.49 622.171,1464.49 623.172,1464.49 624.174,1464.49 625.175,1464.49 626.177,1464.49 627.178,1464.49 628.18,1464.49 629.182,1464.49 
  630.183,1464.49 631.185,1464.49 632.186,1464.49 633.188,1464.49 634.19,1464.49 635.191,1464.49 636.193,1464.49 637.194,1464.49 638.196,1464.49 639.197,1464.49 
  640.199,1464.49 641.201,1464.49 642.202,1464.49 643.204,1464.49 644.205,1464.49 645.207,1464.49 646.208,1464.49 647.21,1464.49 648.212,1464.49 649.213,1464.49 
  650.215,1464.49 651.216,1464.49 652.218,1464.49 653.22,1464.49 654.221,1464.49 655.223,1464.49 656.224,1464.49 657.226,1464.49 658.227,1464.49 659.229,1464.49 
  660.231,1464.49 661.232,1464.49 662.234,1464.49 663.235,1464.49 664.237,1464.49 665.238,1464.49 666.24,1464.49 667.242,1464.49 668.243,1464.49 669.245,1464.49 
  670.246,1464.49 671.248,1464.49 672.25,1464.49 673.251,1464.49 674.253,1464.49 675.254,1464.49 676.256,1464.49 677.257,1464.49 678.259,1464.49 679.261,1464.49 
  680.262,1464.49 681.264,1464.49 682.265,1464.49 683.267,1464.49 684.268,1464.49 685.27,1464.49 686.272,1464.49 687.273,1464.49 688.275,1464.49 689.276,1464.49 
  690.278,1464.49 691.28,1464.49 692.281,1464.49 693.283,1464.49 694.284,1464.49 695.286,1464.49 696.287,1464.49 697.289,1464.49 698.291,1464.49 699.292,1464.49 
  700.294,1464.49 701.295,1464.49 702.297,1464.49 703.298,1464.49 704.3,1464.49 705.302,1464.49 706.303,1464.49 707.305,1464.49 708.306,1464.49 709.308,1464.49 
  710.31,1464.49 711.311,1464.49 712.313,1464.49 713.314,1464.49 714.316,1464.49 715.317,1464.49 716.319,1464.49 717.321,1464.49 718.322,1464.49 719.324,1464.49 
  720.325,1464.49 721.327,1464.49 722.329,1464.49 723.33,1464.49 724.332,1464.49 725.333,1464.49 726.335,1464.49 727.336,1464.49 728.338,1464.49 729.34,1464.49 
  730.341,1464.49 731.343,1464.49 732.344,1464.49 733.346,1464.49 734.347,1464.49 735.349,1464.49 736.351,1464.49 737.352,1464.49 738.354,1464.49 739.355,1464.49 
  740.357,1464.49 741.359,1464.49 742.36,1464.49 743.362,1464.49 744.363,1464.49 745.365,1464.49 746.366,1464.49 747.368,1464.49 748.37,1464.49 749.371,1464.49 
  750.373,1464.49 751.374,1464.49 752.376,1464.49 753.377,1464.49 754.379,1464.49 755.381,1464.49 756.382,1464.49 757.384,1464.49 758.385,1464.49 759.387,1464.49 
  760.389,1464.49 761.39,1464.49 762.392,1464.49 763.393,1464.49 764.395,1464.49 765.396,1464.49 766.398,1464.49 767.4,1464.49 768.401,1464.49 769.403,1464.49 
  770.404,1464.49 771.406,1464.49 772.407,1464.49 773.409,1464.49 774.411,1464.49 775.412,1464.49 776.414,1464.49 777.415,1464.49 778.417,1464.49 779.419,1464.49 
  780.42,1464.49 781.422,1464.49 782.423,1464.49 783.425,1464.49 784.426,1464.49 785.428,1464.49 786.43,1464.49 787.431,1464.49 788.433,1464.49 789.434,1464.49 
  790.436,1464.49 791.437,1464.49 792.439,1464.49 793.441,1464.49 794.442,1464.49 795.444,1464.49 796.445,1464.49 797.447,1464.49 798.449,1464.49 799.45,1464.49 
  800.452,1464.49 801.453,1464.49 802.455,1464.49 803.456,1464.49 804.458,1464.49 805.46,1464.49 806.461,1464.49 807.463,1464.49 808.464,1464.49 809.466,1464.49 
  810.467,1464.49 811.469,1464.49 812.471,1464.49 813.472,1464.49 814.474,1464.49 815.475,1464.49 816.477,1464.49 817.479,1464.49 818.48,1464.49 819.482,1464.49 
  820.483,1464.49 821.485,1464.49 822.486,1464.49 823.488,1464.49 824.49,1464.49 825.491,1464.49 826.493,1464.49 827.494,1464.49 828.496,1464.49 829.497,1464.49 
  830.499,1464.49 831.501,1464.49 832.502,1464.49 833.504,1464.49 834.505,1464.49 835.507,1464.49 836.509,1464.49 837.51,1464.49 838.512,1464.49 839.513,1464.49 
  840.515,1464.49 841.516,1464.49 842.518,1464.49 843.52,1464.49 844.521,1464.49 845.523,1464.49 846.524,1464.49 847.526,1464.49 848.528,1464.49 849.529,1464.49 
  850.531,1464.49 851.532,1464.49 852.534,1464.49 853.535,1464.49 854.537,1464.49 855.539,1464.49 856.54,1464.49 857.542,1464.48 858.543,1464.48 859.545,1464.48 
  860.546,1464.47 861.548,1464.47 862.55,1464.46 863.551,1464.45 864.553,1464.43 865.554,1464.41 866.556,1464.39 867.558,1464.36 868.559,1464.33 869.561,1464.28 
  870.562,1464.24 871.564,1464.18 872.565,1464.12 873.567,1464.05 874.569,1463.98 875.57,1463.9 876.572,1463.83 877.573,1463.75 878.575,1463.68 879.576,1463.62 
  880.578,1463.56 881.58,1463.51 882.581,1463.48 883.583,1463.46 884.584,1463.45 885.586,1463.45 886.588,1463.46 887.589,1463.48 888.591,1463.51 889.592,1463.54 
  890.594,1463.56 891.595,1463.58 892.597,1463.59 893.599,1463.59 894.6,1463.58 895.602,1463.56 896.603,1463.52 897.605,1463.46 898.606,1463.4 899.608,1463.32 
  900.61,1463.24 901.611,1463.16 902.613,1463.07 903.614,1462.99 904.616,1462.92 905.618,1462.85 906.619,1462.8 907.621,1462.77 908.622,1462.75 909.624,1462.74 
  910.625,1462.76 911.627,1462.79 912.629,1462.84 913.63,1462.91 914.632,1462.99 915.633,1463.09 916.635,1463.19 917.636,1463.3 918.638,1463.41 919.64,1463.53 
  920.641,1463.64 921.643,1463.75 922.644,1463.85 923.646,1463.95 924.648,1464.04 925.649,1464.12 926.651,1464.19 927.652,1464.24 928.654,1464.3 929.655,1464.34 
  930.657,1464.37 931.659,1464.4 932.66,1464.42 933.662,1464.43 934.663,1464.44 935.665,1464.45 936.666,1464.45 937.668,1464.45 938.67,1464.44 939.671,1464.43 
  940.673,1464.41 941.674,1464.39 942.676,1464.37 943.678,1464.33 944.679,1464.29 945.681,1464.24 946.682,1464.19 947.684,1464.13 948.685,1464.06 949.687,1463.99 
  950.689,1463.92 951.69,1463.84 952.692,1463.77 953.693,1463.7 954.695,1463.63 955.696,1463.58 956.698,1463.53 957.7,1463.5 958.701,1463.49 959.703,1463.49 
  960.704,1463.5 961.706,1463.53 962.708,1463.57 963.709,1463.63 964.711,1463.69 965.712,1463.76 966.714,1463.84 967.715,1463.91 968.717,1463.99 969.719,1464.06 
  970.72,1464.13 971.722,1464.19 972.723,1464.24 973.725,1464.29 974.727,1464.33 975.728,1464.37 976.73,1464.39 977.731,1464.42 978.733,1464.44 979.734,1464.45 
  980.736,1464.46 981.738,1464.47 982.739,1464.47 983.741,1464.48 984.742,1464.48 985.744,1464.48 986.745,1464.49 987.747,1464.49 988.749,1464.49 989.75,1464.49 
  990.752,1464.49 991.753,1464.49 992.755,1464.49 993.757,1464.49 994.758,1464.49 995.76,1464.49 996.761,1464.49 997.763,1464.49 998.764,1464.49 999.766,1464.49 
  1000.77,1464.49 1001.77,1464.49 1002.77,1464.49 1003.77,1464.49 1004.77,1464.49 1005.78,1464.49 1006.78,1464.49 1007.78,1464.48 1008.78,1464.48 1009.78,1464.48 
  1010.78,1464.47 1011.78,1464.46 1012.79,1464.45 1013.79,1464.43 1014.79,1464.41 1015.79,1464.38 1016.79,1464.35 1017.79,1464.3 1018.8,1464.25 1019.8,1464.18 
  1020.8,1464.1 1021.8,1464.01 1022.8,1463.9 1023.8,1463.78 1024.81,1463.65 1025.81,1463.51 1026.81,1463.36 1027.81,1463.21 1028.81,1463.06 1029.81,1462.92 
  1030.81,1462.78 1031.82,1462.66 1032.82,1462.55 1033.82,1462.47 1034.82,1462.41 1035.82,1462.37 1036.82,1462.35 1037.83,1462.35 1038.83,1462.38 1039.83,1462.42 
  1040.83,1462.47 1041.83,1462.53 1042.83,1462.6 1043.84,1462.67 1044.84,1462.74 1045.84,1462.81 1046.84,1462.88 1047.84,1462.94 1048.84,1463.01 1049.84,1463.08 
  1050.85,1463.14 1051.85,1463.21 1052.85,1463.28 1053.85,1463.36 1054.85,1463.44 1055.85,1463.52 1056.86,1463.61 1057.86,1463.69 1058.86,1463.78 1059.86,1463.86 
  1060.86,1463.94 1061.86,1464 1062.87,1464.06 1063.87,1464.11 1064.87,1464.15 1065.87,1464.18 1066.87,1464.19 1067.87,1464.19 1068.87,1464.17 1069.88,1464.15 
  1070.88,1464.11 1071.88,1464.06 1072.88,1464 1073.88,1463.94 1074.88,1463.86 1075.89,1463.79 1076.89,1463.72 1077.89,1463.65 1078.89,1463.58 1079.89,1463.52 
  1080.89,1463.47 1081.9,1463.43 1082.9,1463.39 1083.9,1463.37 1084.9,1463.35 1085.9,1463.34 1086.9,1463.33 1087.9,1463.31 1088.91,1463.3 1089.91,1463.28 
  1090.91,1463.24 1091.91,1463.2 1092.91,1463.14 1093.91,1463.08 1094.92,1463 1095.92,1462.92 1096.92,1462.83 1097.92,1462.75 1098.92,1462.66 1099.92,1462.59 
  1100.93,1462.53 1101.93,1462.49 1102.93,1462.47 1103.93,1462.46 1104.93,1462.48 1105.93,1462.52 1106.93,1462.57 1107.94,1462.64 1108.94,1462.72 1109.94,1462.8 
  1110.94,1462.89 1111.94,1462.97 1112.94,1463.04 1113.95,1463.11 1114.95,1463.16 1115.95,1463.2 1116.95,1463.23 1117.95,1463.26 1118.95,1463.27 1119.96,1463.29 
  1120.96,1463.29 1121.96,1463.3 1122.96,1463.31 1123.96,1463.33 1124.96,1463.35 1125.96,1463.37 1126.97,1463.39 1127.97,1463.41 1128.97,1463.42 1129.97,1463.43 
  1130.97,1463.43 1131.97,1463.42 1132.98,1463.4 1133.98,1463.36 1134.98,1463.3 1135.98,1463.23 1136.98,1463.14 1137.98,1463.05 1138.99,1462.94 1139.99,1462.83 
  1140.99,1462.71 1141.99,1462.6 1142.99,1462.49 1143.99,1462.38 1145,1462.28 1146,1462.18 1147,1462.09 1148,1462 1149,1461.91 1150,1461.82 
  1151,1461.73 1152.01,1461.63 1153.01,1461.52 1154.01,1461.4 1155.01,1461.28 1156.01,1461.15 1157.01,1461.02 1158.02,1460.9 1159.02,1460.79 1160.02,1460.7 
  1161.02,1460.63 1162.02,1460.59 1163.02,1460.58 1164.03,1460.61 1165.03,1460.67 1166.03,1460.77 1167.03,1460.91 1168.03,1461.08 1169.03,1461.28 1170.03,1461.49 
  1171.04,1461.73 1172.04,1461.97 1173.04,1462.21 1174.04,1462.45 1175.04,1462.68 1176.04,1462.9 1177.05,1463.09 1178.05,1463.27 1179.05,1463.41 1180.05,1463.53 
  1181.05,1463.61 1182.05,1463.67 1183.06,1463.69 1184.06,1463.68 1185.06,1463.64 1186.06,1463.58 1187.06,1463.48 1188.06,1463.35 1189.06,1463.2 1190.07,1463.02 
  1191.07,1462.82 1192.07,1462.6 1193.07,1462.35 1194.07,1462.09 1195.07,1461.81 1196.08,1461.51 1197.08,1461.2 1198.08,1460.88 1199.08,1460.55 1200.08,1460.21 
  1201.08,1459.87 1202.09,1459.53 1203.09,1459.19 1204.09,1458.85 1205.09,1458.51 1206.09,1458.19 1207.09,1457.88 1208.09,1457.58 1209.1,1457.3 1210.1,1457.05 
  1211.1,1456.82 1212.1,1456.62 1213.1,1456.46 1214.1,1456.34 1215.11,1456.26 1216.11,1456.22 1217.11,1456.23 1218.11,1456.28 1219.11,1456.37 1220.11,1456.49 
  1221.12,1456.64 1222.12,1456.79 1223.12,1456.96 1224.12,1457.11 1225.12,1457.23 1226.12,1457.32 1227.12,1457.37 1228.13,1457.36 1229.13,1457.29 1230.13,1457.15 
  1231.13,1456.94 1232.13,1456.66 1233.13,1456.33 1234.14,1455.93 1235.14,1455.48 1236.14,1454.99 1237.14,1454.46 1238.14,1453.91 1239.14,1453.34 1240.15,1452.75 
  1241.15,1452.15 1242.15,1451.55 1243.15,1450.95 1244.15,1450.34 1245.15,1449.73 1246.15,1449.11 1247.16,1448.48 1248.16,1447.83 1249.16,1447.17 1250.16,1446.48 
  1251.16,1445.77 1252.16,1445.02 1253.17,1444.25 1254.17,1443.43 1255.17,1442.57 1256.17,1441.68 1257.17,1440.75 1258.17,1439.78 1259.18,1438.78 1260.18,1437.76 
  1261.18,1436.73 1262.18,1435.69 1263.18,1434.66 1264.18,1433.64 1265.18,1432.67 1266.19,1431.74 1267.19,1430.86 1268.19,1430.05 1269.19,1429.31 1270.19,1428.63 
  1271.19,1428.02 1272.2,1427.46 1273.2,1426.94 1274.2,1426.43 1275.2,1425.94 1276.2,1425.42 1277.2,1424.88 1278.21,1424.3 1279.21,1423.67 1280.21,1423 
  1281.21,1422.29 1282.21,1421.55 1283.21,1420.8 1284.21,1420.06 1285.22,1419.35 1286.22,1418.68 1287.22,1418.07 1288.22,1417.53 1289.22,1417.04 1290.22,1416.61 
  1291.23,1416.2 1292.23,1415.79 1293.23,1415.35 1294.23,1414.85 1295.23,1414.23 1296.23,1413.48 1297.24,1412.55 1298.24,1411.41 1299.24,1410.06 1300.24,1408.48 
  1301.24,1406.66 1302.24,1404.6 1303.24,1402.32 1304.25,1399.83 1305.25,1397.15 1306.25,1394.3 1307.25,1391.3 1308.25,1388.2 1309.25,1385.01 1310.26,1381.77 
  1311.26,1378.52 1312.26,1375.3 1313.26,1372.15 1314.26,1369.1 1315.26,1366.18 1316.27,1363.44 1317.27,1360.88 1318.27,1358.55 1319.27,1356.43 1320.27,1354.54 
  1321.27,1352.87 1322.27,1351.39 1323.28,1350.1 1324.28,1348.95 1325.28,1347.91 1326.28,1346.95 1327.28,1346.01 1328.28,1345.04 1329.29,1344.02 1330.29,1342.88 
  1331.29,1341.59 1332.29,1340.09 1333.29,1338.35 1334.29,1336.33 1335.3,1333.99 1336.3,1331.3 1337.3,1328.23 1338.3,1324.76 1339.3,1320.88 1340.3,1316.59 
  1341.3,1311.89 1342.31,1306.8 1343.31,1301.33 1344.31,1295.54 1345.31,1289.45 1346.31,1283.12 1347.31,1276.6 1348.32,1269.94 1349.32,1263.21 1350.32,1256.44 
  1351.32,1249.7 1352.32,1243.01 1353.32,1236.42 1354.33,1229.94 1355.33,1223.58 1356.33,1217.35 1357.33,1211.26 1358.33,1205.28 1359.33,1199.42 1360.33,1193.66 
  1361.34,1187.99 1362.34,1182.41 1363.34,1176.9 1364.34,1171.46 1365.34,1166.06 1366.34,1160.69 1367.35,1155.31 1368.35,1149.9 1369.35,1144.39 1370.35,1138.73 
  1371.35,1132.83 1372.35,1126.63 1373.36,1120.02 1374.36,1112.93 1375.36,1105.25 1376.36,1096.91 1377.36,1087.85 1378.36,1078 1379.36,1067.34 1380.37,1055.84 
  1381.37,1043.52 1382.37,1030.41 1383.37,1016.55 1384.37,1002.02 1385.37,986.894 1386.38,971.278 1387.38,955.282 1388.38,939.027 1389.38,922.634 1390.38,906.226 
  1391.38,889.92 1392.39,873.823 1393.39,858.025 1394.39,842.599 1395.39,827.596 1396.39,813.041 1397.39,798.935 1398.39,785.252 1399.4,771.947 1400.4,758.953 
  1401.4,746.191 1402.4,733.574 1403.4,721.009 1404.4,708.41 1405.41,695.696 1406.41,682.799 1407.41,669.666 1408.41,656.257 1409.41,642.553 1410.41,628.549 
  1411.42,614.254 1412.42,599.693 1413.42,584.9 1414.42,569.918 1415.42,554.797 1416.42,539.588 1417.42,524.344 1418.43,509.119 1419.43,493.962 1420.43,478.915 
  1421.43,464.021 1422.43,449.312 1423.43,434.821 1424.44,420.576 1425.44,406.606 1426.44,392.939 1427.44,379.609 1428.44,366.652 1429.44,354.106 1430.45,342.011 
  1431.45,330.402 1432.45,319.308 1433.45,308.739 1434.45,298.69 1435.45,289.13 1436.45,280.002 1437.46,271.226 1438.46,262.704 1439.46,254.33 1440.46,246.004 
  1441.46,237.643 1442.46,229.202 1443.47,220.682 1444.47,212.142 1445.47,203.701 1446.47,195.535 1447.47,187.863 1448.47,180.931 1449.48,174.989 1450.48,170.267 
  1451.48,166.952 1452.48,165.17 1453.48,164.97 1454.48,166.328 1455.48,169.146 1456.49,173.273 1457.49,178.518 1458.49,184.677 1459.49,191.558 1460.49,198.997 
  1461.49,206.877 1462.5,215.132 1463.5,223.747 1464.5,232.752 1465.5,242.207 1466.5,252.189 1467.5,262.769 1468.51,274.001 1469.51,285.911 1470.51,298.487 
  1471.51,311.679 1472.51,325.4 1473.51,339.54 1474.51,353.968 1475.52,368.549 1476.52,383.154 1477.52,397.67 1478.52,412.008 1479.52,426.107 1480.52,439.937 
  1481.53,453.498 1482.53,466.815 1483.53,479.935 1484.53,492.921 1485.53,505.847 1486.53,518.789 1487.54,531.823 1488.54,545.022 1489.54,558.446 1490.54,572.148 
  1491.54,586.166 1492.54,600.522 1493.54,615.226 1494.55,630.268 1495.55,645.627 1496.55,661.262 1497.55,677.12 1498.55,693.136 1499.55,709.234 1500.56,725.333 
  1501.56,741.349 1502.56,757.2 1503.56,772.81 1504.56,788.116 1505.56,803.066 1506.57,817.624 1507.57,831.775 1508.57,845.52 1509.57,858.874 1510.57,871.871 
  1511.57,884.553 1512.57,896.968 1513.58,909.17 1514.58,921.209 1515.58,933.133 1516.58,944.979 1517.58,956.774 1518.58,968.533 1519.59,980.255 1520.59,991.927 
  1521.59,1003.52 1522.59,1015 1523.59,1026.31 1524.59,1037.4 1525.6,1048.21 1526.6,1058.66 1527.6,1068.71 1528.6,1078.28 1529.6,1087.34 1530.6,1095.86 
  1531.6,1103.8 1532.61,1111.16 1533.61,1117.97 1534.61,1124.25 1535.61,1130.06 1536.61,1135.47 1537.61,1140.55 1538.62,1145.38 1539.62,1150.07 1540.62,1154.7 
  1541.62,1159.35 1542.62,1164.08 1543.62,1168.96 1544.63,1174 1545.63,1179.24 1546.63,1184.65 1547.63,1190.2 1548.63,1195.87 1549.63,1201.58 1550.63,1207.27 
  1551.64,1212.89 1552.64,1218.36 1553.64,1223.63 1554.64,1228.66 1555.64,1233.41 1556.64,1237.88 1557.65,1242.07 1558.65,1245.99 1559.65,1249.68 1560.65,1253.18 
  1561.65,1256.53 1562.65,1259.8 1563.66,1263.04 1564.66,1266.3 1565.66,1269.62 1566.66,1273.04 1567.66,1276.58 1568.66,1280.28 1569.66,1284.12 1570.67,1288.1 
  1571.67,1292.21 1572.67,1296.42 1573.67,1300.69 1574.67,1304.99 1575.67,1309.28 1576.68,1313.5 1577.68,1317.62 1578.68,1321.6 1579.68,1325.41 1580.68,1329.01 
  1581.68,1332.4 1582.69,1335.57 1583.69,1338.5 1584.69,1341.22 1585.69,1343.75 1586.69,1346.09 1587.69,1348.28 1588.69,1350.35 1589.7,1352.32 1590.7,1354.22 
  1591.7,1356.09 1592.7,1357.93 1593.7,1359.78 1594.7,1361.63 1595.71,1363.51 1596.71,1365.42 1597.71,1367.36 1598.71,1369.33 1599.71,1371.33 1600.71,1373.35 
  1601.72,1375.41 1602.72,1377.48 1603.72,1379.58 1604.72,1381.7 1605.72,1383.83 1606.72,1385.99 1607.72,1388.16 1608.73,1390.35 1609.73,1392.57 1610.73,1394.79 
  1611.73,1397.03 1612.73,1399.28 1613.73,1401.54 1614.74,1403.79 1615.74,1406.02 1616.74,1408.23 1617.74,1410.4 1618.74,1412.51 1619.74,1414.54 1620.75,1416.49 
  1621.75,1418.33 1622.75,1420.04 1623.75,1421.62 1624.75,1423.06 1625.75,1424.36 1626.75,1425.51 1627.76,1426.52 1628.76,1427.4 1629.76,1428.17 1630.76,1428.84 
  1631.76,1429.43 1632.76,1429.96 1633.77,1430.46 1634.77,1430.93 1635.77,1431.4 1636.77,1431.87 1637.77,1432.36 1638.77,1432.86 1639.78,1433.38 1640.78,1433.9 
  1641.78,1434.43 1642.78,1434.95 1643.78,1435.44 1644.78,1435.9 1645.78,1436.3 1646.79,1436.63 1647.79,1436.88 1648.79,1437.05 1649.79,1437.12 1650.79,1437.11 
  1651.79,1437.02 1652.8,1436.86 1653.8,1436.66 1654.8,1436.44 1655.8,1436.22 1656.8,1436.03 1657.8,1435.91 1658.81,1435.88 1659.81,1435.95 1660.81,1436.15 
  1661.81,1436.49 1662.81,1436.96 1663.81,1437.56 1664.81,1438.27 1665.82,1439.08 1666.82,1439.97 1667.82,1440.91 1668.82,1441.87 1669.82,1442.83 1670.82,1443.77 
  1671.83,1444.67 1672.83,1445.52 1673.83,1446.32 1674.83,1447.05 1675.83,1447.73 1676.83,1448.35 1677.84,1448.92 1678.84,1449.46 1679.84,1449.97 1680.84,1450.46 
  1681.84,1450.93 1682.84,1451.39 1683.84,1451.84 1684.85,1452.27 1685.85,1452.69 1686.85,1453.09 1687.85,1453.45 1688.85,1453.78 1689.85,1454.07 1690.86,1454.3 
  1691.86,1454.47 1692.86,1454.57 1693.86,1454.61 1694.86,1454.58 1695.86,1454.48 1696.87,1454.32 1697.87,1454.1 1698.87,1453.83 1699.87,1453.53 1700.87,1453.2 
  1701.87,1452.86 1702.87,1452.53 1703.88,1452.22 1704.88,1451.94 1705.88,1451.71 1706.88,1451.54 1707.88,1451.43 1708.88,1451.4 1709.89,1451.44 1710.89,1451.56 
  1711.89,1451.75 1712.89,1452 1713.89,1452.32 1714.89,1452.68 1715.9,1453.08 1716.9,1453.52 1717.9,1453.97 1718.9,1454.42 1719.9,1454.88 1720.9,1455.34 
  1721.9,1455.78 1722.91,1456.21 1723.91,1456.63 1724.91,1457.04 1725.91,1457.43 1726.91,1457.81 1727.91,1458.18 1728.92,1458.53 1729.92,1458.88 1730.92,1459.21 
  1731.92,1459.52 1732.92,1459.82 1733.92,1460.1 1734.93,1460.36 1735.93,1460.59 1736.93,1460.79 1737.93,1460.97 1738.93,1461.12 1739.93,1461.24 1740.93,1461.34 
  1741.94,1461.41 1742.94,1461.47 1743.94,1461.5 1744.94,1461.51 1745.94,1461.51 1746.94,1461.49 1747.95,1461.46 1748.95,1461.41 1749.95,1461.36 1750.95,1461.3 
  1751.95,1461.23 1752.95,1461.15 1753.96,1461.07 1754.96,1460.98 1755.96,1460.89 1756.96,1460.8 1757.96,1460.7 1758.96,1460.61 1759.96,1460.52 1760.97,1460.43 
  1761.97,1460.35 1762.97,1460.27 1763.97,1460.21 1764.97,1460.14 1765.97,1460.09 1766.98,1460.05 1767.98,1460.01 1768.98,1459.99 1769.98,1459.97 1770.98,1459.97 
  1771.98,1459.98 1772.99,1460 1773.99,1460.04 1774.99,1460.09 1775.99,1460.16 1776.99,1460.24 1777.99,1460.33 1778.99,1460.43 1780,1460.54 1781,1460.67 
  1782,1460.8 1783,1460.93 1784,1461.07 1785,1461.22 1786.01,1461.36 1787.01,1461.51 1788.01,1461.66 1789.01,1461.8 1790.01,1461.95 1791.01,1462.1 
  1792.02,1462.25 1793.02,1462.4 1794.02,1462.55 1795.02,1462.71 1796.02,1462.86 1797.02,1463.01 1798.02,1463.16 1799.03,1463.3 1800.03,1463.44 1801.03,1463.58 
  1802.03,1463.7 1803.03,1463.82 1804.03,1463.92 1805.04,1464.02 1806.04,1464.1 1807.04,1464.18 1808.04,1464.24 1809.04,1464.29 1810.04,1464.34 1811.05,1464.37 
  1812.05,1464.4 1813.05,1464.42 1814.05,1464.44 1815.05,1464.45 1816.05,1464.46 1817.05,1464.47 1818.06,1464.48 1819.06,1464.48 1820.06,1464.48 1821.06,1464.49 
  1822.06,1464.49 1823.06,1464.49 1824.07,1464.49 1825.07,1464.49 1826.07,1464.49 1827.07,1464.49 1828.07,1464.49 1829.07,1464.49 1830.08,1464.49 1831.08,1464.49 
  1832.08,1464.48 1833.08,1464.48 1834.08,1464.48 1835.08,1464.47 1836.08,1464.47 1837.09,1464.46 1838.09,1464.45 1839.09,1464.43 1840.09,1464.41 1841.09,1464.38 
  1842.09,1464.35 1843.1,1464.31 1844.1,1464.27 1845.1,1464.22 1846.1,1464.16 1847.1,1464.09 1848.1,1464.01 1849.11,1463.93 1850.11,1463.84 1851.11,1463.75 
  1852.11,1463.66 1853.11,1463.57 1854.11,1463.48 1855.11,1463.39 1856.12,1463.31 1857.12,1463.23 1858.12,1463.17 1859.12,1463.11 1860.12,1463.06 1861.12,1463.03 
  1862.13,1463 1863.13,1462.98 1864.13,1462.97 1865.13,1462.98 1866.13,1462.99 1867.13,1463.01 1868.14,1463.05 1869.14,1463.09 1870.14,1463.14 1871.14,1463.2 
  1872.14,1463.26 1873.14,1463.33 1874.14,1463.4 1875.15,1463.48 1876.15,1463.55 1877.15,1463.62 1878.15,1463.67 1879.15,1463.72 1880.15,1463.76 1881.16,1463.78 
  1882.16,1463.78 1883.16,1463.76 1884.16,1463.73 1885.16,1463.68 1886.16,1463.62 1887.17,1463.53 1888.17,1463.44 1889.17,1463.34 1890.17,1463.24 1891.17,1463.13 
  1892.17,1463.03 1893.17,1462.94 1894.18,1462.85 1895.18,1462.78 1896.18,1462.73 1897.18,1462.7 1898.18,1462.69 1899.18,1462.69 1900.19,1462.72 1901.19,1462.77 
  1902.19,1462.84 1903.19,1462.93 1904.19,1463.03 1905.19,1463.14 1906.2,1463.25 1907.2,1463.37 1908.2,1463.5 1909.2,1463.62 1910.2,1463.73 1911.2,1463.84 
  1912.2,1463.94 1913.21,1464.03 1914.21,1464.11 1915.21,1464.19 1916.21,1464.25 1917.21,1464.3 1918.21,1464.34 1919.22,1464.38 1920.22,1464.4 1921.22,1464.43 
  1922.22,1464.44 1923.22,1464.46 1924.22,1464.47 1925.23,1464.47 1926.23,1464.48 1927.23,1464.48 1928.23,1464.48 1929.23,1464.49 1930.23,1464.49 1931.23,1464.49 
  1932.24,1464.49 1933.24,1464.49 1934.24,1464.49 1935.24,1464.49 1936.24,1464.49 1937.24,1464.49 1938.25,1464.49 1939.25,1464.49 1940.25,1464.49 1941.25,1464.49 
  1942.25,1464.49 1943.25,1464.49 1944.26,1464.49 1945.26,1464.49 1946.26,1464.49 1947.26,1464.49 1948.26,1464.49 1949.26,1464.49 1950.26,1464.49 1951.27,1464.49 
  1952.27,1464.49 1953.27,1464.49 1954.27,1464.49 1955.27,1464.49 1956.27,1464.49 1957.28,1464.49 1958.28,1464.49 1959.28,1464.49 1960.28,1464.49 1961.28,1464.49 
  1962.28,1464.49 1963.29,1464.49 1964.29,1464.49 1965.29,1464.49 1966.29,1464.49 1967.29,1464.49 1968.29,1464.49 1969.29,1464.49 1970.3,1464.49 1971.3,1464.49 
  1972.3,1464.49 1973.3,1464.49 1974.3,1464.49 1975.3,1464.49 1976.31,1464.49 1977.31,1464.49 1978.31,1464.49 1979.31,1464.48 1980.31,1464.48 1981.31,1464.48 
  1982.32,1464.47 1983.32,1464.46 1984.32,1464.45 1985.32,1464.43 1986.32,1464.41 1987.32,1464.38 1988.32,1464.35 1989.33,1464.3 1990.33,1464.25 1991.33,1464.19 
  1992.33,1464.11 1993.33,1464.02 1994.33,1463.91 1995.34,1463.8 1996.34,1463.67 1997.34,1463.54 1998.34,1463.4 1999.34,1463.25 2000.34,1463.11 2001.35,1462.98 
  2002.35,1462.85 2003.35,1462.74 2004.35,1462.65 2005.35,1462.59 2006.35,1462.55 2007.35,1462.53 2008.36,1462.55 2009.36,1462.59 2010.36,1462.66 2011.36,1462.76 
  2012.36,1462.87 2013.36,1463 2014.37,1463.13 2015.37,1463.28 2016.37,1463.42 2017.37,1463.56 2018.37,1463.69 2019.37,1463.82 2020.38,1463.93 2021.38,1464.03 
  2022.38,1464.12 2023.38,1464.2 2024.38,1464.26 2025.38,1464.31 2026.38,1464.35 2027.39,1464.39 2028.39,1464.41 2029.39,1464.43 2030.39,1464.45 2031.39,1464.46 
  2032.39,1464.47 2033.4,1464.48 2034.4,1464.48 2035.4,1464.48 2036.4,1464.49 2037.4,1464.49 2038.4,1464.49 2039.41,1464.49 2040.41,1464.49 2041.41,1464.49 
  2042.41,1464.49 2043.41,1464.49 2044.41,1464.49 2045.41,1464.49 2046.42,1464.49 2047.42,1464.49 2048.42,1464.49 2049.42,1464.49 2050.42,1464.49 2051.42,1464.49 
  2052.43,1464.49 2053.43,1464.49 2054.43,1464.49 2055.43,1464.49 2056.43,1464.49 2057.43,1464.49 2058.44,1464.49 2059.44,1464.49 2060.44,1464.49 2061.44,1464.49 
  2062.44,1464.49 2063.44,1464.49 2064.44,1464.49 2065.45,1464.49 2066.45,1464.49 2067.45,1464.49 2068.45,1464.49 2069.45,1464.49 2070.45,1464.49 2071.46,1464.49 
  2072.46,1464.49 2073.46,1464.49 2074.46,1464.49 2075.46,1464.49 2076.46,1464.49 2077.47,1464.49 2078.47,1464.49 2079.47,1464.49 2080.47,1464.49 2081.47,1464.49 
  2082.47,1464.49 2083.47,1464.49 2084.48,1464.49 2085.48,1464.49 2086.48,1464.49 2087.48,1464.49 2088.48,1464.49 2089.48,1464.49 2090.49,1464.49 2091.49,1464.49 
  2092.49,1464.49 2093.49,1464.49 2094.49,1464.49 2095.49,1464.49 2096.5,1464.49 2097.5,1464.49 2098.5,1464.49 2099.5,1464.49 2100.5,1464.49 2101.5,1464.49 
  2102.5,1464.49 2103.51,1464.49 2104.51,1464.49 2105.51,1464.49 2106.51,1464.49 2107.51,1464.49 2108.51,1464.49 2109.52,1464.49 2110.52,1464.49 2111.52,1464.49 
  2112.52,1464.49 2113.52,1464.49 2114.52,1464.49 2115.53,1464.49 2116.53,1464.49 2117.53,1464.49 2118.53,1464.49 2119.53,1464.49 2120.53,1464.49 2121.53,1464.49 
  2122.54,1464.49 2123.54,1464.49 2124.54,1464.49 2125.54,1464.49 2126.54,1464.49 2127.54,1464.49 2128.55,1464.49 2129.55,1464.49 2130.55,1464.49 2131.55,1464.49 
  2132.55,1464.49 2133.55,1464.49 2134.56,1464.49 2135.56,1464.49 2136.56,1464.49 2137.56,1464.49 2138.56,1464.49 2139.56,1464.49 2140.56,1464.49 2141.57,1464.49 
  2142.57,1464.49 2143.57,1464.49 2144.57,1464.49 2145.57,1464.49 2146.57,1464.49 2147.58,1464.49 2148.58,1464.49 2149.58,1464.49 2150.58,1464.49 2151.58,1464.49 
  2152.58,1464.49 2153.59,1464.49 2154.59,1464.49 2155.59,1464.49 2156.59,1464.49 2157.59,1464.49 2158.59,1464.49 2159.59,1464.49 2160.6,1464.49 2161.6,1464.49 
  2162.6,1464.49 2163.6,1464.49 2164.6,1464.49 2165.6,1464.49 2166.61,1464.49 2167.61,1464.49 2168.61,1464.49 2169.61,1464.49 2170.61,1464.49 2171.61,1464.49 
  2172.62,1464.49 2173.62,1464.49 2174.62,1464.49 2175.62,1464.49 2176.62,1464.49 2177.62,1464.49 2178.62,1464.49 2179.63,1464.49 2180.63,1464.49 2181.63,1464.49 
  2182.63,1464.49 2183.63,1464.49 2184.63,1464.49 2185.64,1464.49 2186.64,1464.49 2187.64,1464.49 2188.64,1464.49 2189.64,1464.49 2190.64,1464.49 2191.65,1464.49 
  2192.65,1464.49 2193.65,1464.49 2194.65,1464.49 2195.65,1464.49 2196.65,1464.49 2197.65,1464.49 2198.66,1464.49 2199.66,1464.49 2200.66,1464.49 2201.66,1464.48 
  2202.66,1464.48 2203.66,1464.48 2204.67,1464.47 2205.67,1464.46 2206.67,1464.45 2207.67,1464.44 2208.67,1464.43 2209.67,1464.4 2210.68,1464.38 2211.68,1464.35 
  2212.68,1464.31 2213.68,1464.26 2214.68,1464.21 2215.68,1464.15 2216.68,1464.09 2217.69,1464.02 2218.69,1463.94 2219.69,1463.87 2220.69,1463.79 2221.69,1463.72 
  2222.69,1463.65 2223.7,1463.59 2224.7,1463.55 2225.7,1463.51 2226.7,1463.49 2227.7,1463.48 2228.7,1463.49 2229.71,1463.52 2230.71,1463.56 2231.71,1463.61 
  2232.71,1463.67 2233.71,1463.74 2234.71,1463.81 2235.71,1463.89 2236.72,1463.96 2237.72,1464.03 2238.72,1464.1 2239.72,1464.17 2240.72,1464.22 2241.72,1464.27 
  2242.73,1464.32 2243.73,1464.35 2244.73,1464.39 2245.73,1464.41 2246.73,1464.43 2247.73,1464.45 2248.74,1464.46 2249.74,1464.47 2250.74,1464.47 2251.74,1464.48 
  2252.74,1464.48 2253.74,1464.48 2254.74,1464.49 2255.75,1464.49 2256.75,1464.49 2257.75,1464.49 2258.75,1464.49 2259.75,1464.49 
  "/>
<polyline clip-path="url(#clip0203)" style="stroke:#e26f46; stroke-width:4; stroke-opacity:1; fill:none" points="
  1193.5,1463.41 1196.08,1463.26 1219.92,1460.53 1243.75,1453.11 1258.07,1444.16 1272.39,1429.64 1284.5,1411.23 1296.61,1385.42 1303.19,1367.69 1309.77,1346.99 
  1316.34,1323.09 1322.92,1295.78 1328.98,1267.45 1335.05,1236.05 1341.11,1201.56 1347.18,1164.07 1360.18,1074.4 1373.18,974.682 1388.24,853.07 1403.31,734.885 
  1410,686.612 1416.69,642.49 1423.39,603.557 1430.08,570.766 1435.95,547.721 1441.82,530.492 1447.69,519.426 1453.56,514.747 1459.96,517.034 1466.36,526.969 
  1472.76,544.312 1479.15,568.648 1485.59,599.604 1492.03,636.332 1498.47,677.998 1504.9,723.688 1519.14,834.201 1533.37,949.374 1546.92,1054.94 1560.46,1150.52 
  1567.5,1194.95 1574.54,1235.35 1581.58,1271.61 1588.63,1303.72 1600.48,1348.77 1612.34,1383.49 1626.81,1414.03 1641.28,1434.34 1654.89,1446.6 1668.49,1454.26 
  1690.29,1460.62 1712.08,1463.16 1715.44,1463.37 
  "/>
<polygon clip-path="url(#clip0201)" points="
1696.29,390.944 2249.26,390.944 2249.26,209.504 1696.29,209.504 
  " fill="#ffffff" fill-rule="evenodd" fill-opacity="1"/>
<polyline clip-path="url(#clip0201)" style="stroke:#000000; stroke-width:4; stroke-opacity:1; fill:none" points="
  1696.29,390.944 2249.26,390.944 2249.26,209.504 1696.29,209.504 1696.29,390.944 
  "/>
<polyline clip-path="url(#clip0201)" style="stroke:#009af9; stroke-width:4; stroke-opacity:1; fill:none" points="
  1720.29,269.984 1864.29,269.984 
  "/>
<g clip-path="url(#clip0201)">
<text style="fill:#000000; fill-opacity:1; font-family:Arial,Helvetica Neue,Helvetica,sans-serif; font-size:48px; text-anchor:start;" transform="rotate(0, 1888.29, 287.484)" x="1888.29" y="287.484">Kernel Density</text>
</g>
<polyline clip-path="url(#clip0201)" style="stroke:#e26f46; stroke-width:4; stroke-opacity:1; fill:none" points="
  1720.29,330.464 1864.29,330.464 
  "/>
<g clip-path="url(#clip0201)">
<text style="fill:#000000; fill-opacity:1; font-family:Arial,Helvetica Neue,Helvetica,sans-serif; font-size:48px; text-anchor:start;" transform="rotate(0, 1888.29, 347.964)" x="1888.29" y="347.964">Fitted Normal</text>
</g>
</svg>
